<mxfile host="Electron" modified="2023-08-09T09:01:23.779Z" agent="Mozilla/5.0 (X11; Linux x86_64) AppleWebKit/537.36 (KHTML, like Gecko) draw.io/21.2.8 Chrome/112.0.5615.165 Electron/24.2.0 Safari/537.36" etag="n-C7KbsiVVVcs8_sUddj" version="21.2.8" type="device">
  <diagram name="Page-1" id="FKkUJdt6P6mYZZZfsSgy">
    <mxGraphModel dx="1434" dy="870" grid="1" gridSize="10" guides="1" tooltips="1" connect="1" arrows="1" fold="1" page="1" pageScale="1" pageWidth="850" pageHeight="1100" math="0" shadow="0">
      <root>
        <mxCell id="0" />
        <mxCell id="1" parent="0" />
        <mxCell id="bJUq3DUy4A8ikL43-R-6-4" value="" style="whiteSpace=wrap;html=1;aspect=fixed;" vertex="1" parent="1">
          <mxGeometry x="210" y="300" width="80" height="80" as="geometry" />
        </mxCell>
        <mxCell id="bJUq3DUy4A8ikL43-R-6-3" value="" style="image;sketch=0;aspect=fixed;html=1;points=[];align=center;fontSize=12;image=img/lib/mscae/Docker.svg;" vertex="1" parent="1">
          <mxGeometry x="225" y="329.5" width="50" height="41" as="geometry" />
        </mxCell>
        <mxCell id="bJUq3DUy4A8ikL43-R-6-5" value="Master" style="text;html=1;align=center;verticalAlign=middle;resizable=0;points=[];autosize=1;strokeColor=none;fillColor=none;" vertex="1" parent="1">
          <mxGeometry x="220" y="300" width="60" height="30" as="geometry" />
        </mxCell>
        <mxCell id="bJUq3DUy4A8ikL43-R-6-6" value="" style="whiteSpace=wrap;html=1;aspect=fixed;" vertex="1" parent="1">
          <mxGeometry x="650" y="181" width="80" height="80" as="geometry" />
        </mxCell>
        <mxCell id="bJUq3DUy4A8ikL43-R-6-7" value="" style="image;sketch=0;aspect=fixed;html=1;points=[];align=center;fontSize=12;image=img/lib/mscae/Docker.svg;" vertex="1" parent="1">
          <mxGeometry x="665" y="210.5" width="50" height="41" as="geometry" />
        </mxCell>
        <mxCell id="bJUq3DUy4A8ikL43-R-6-8" value="&lt;font style=&quot;font-size: 14px;&quot;&gt;api_slave&lt;/font&gt;" style="text;html=1;align=center;verticalAlign=middle;resizable=0;points=[];autosize=1;strokeColor=none;fillColor=none;" vertex="1" parent="1">
          <mxGeometry x="650" y="181" width="80" height="30" as="geometry" />
        </mxCell>
        <mxCell id="bJUq3DUy4A8ikL43-R-6-9" value="" style="whiteSpace=wrap;html=1;aspect=fixed;" vertex="1" parent="1">
          <mxGeometry x="650" y="301" width="80" height="80" as="geometry" />
        </mxCell>
        <mxCell id="bJUq3DUy4A8ikL43-R-6-10" value="" style="image;sketch=0;aspect=fixed;html=1;points=[];align=center;fontSize=12;image=img/lib/mscae/Docker.svg;" vertex="1" parent="1">
          <mxGeometry x="665" y="330.5" width="50" height="41" as="geometry" />
        </mxCell>
        <mxCell id="bJUq3DUy4A8ikL43-R-6-11" value="&lt;font style=&quot;font-size: 14px;&quot;&gt;grpc_slave&lt;/font&gt;" style="text;html=1;align=center;verticalAlign=middle;resizable=0;points=[];autosize=1;strokeColor=none;fillColor=none;" vertex="1" parent="1">
          <mxGeometry x="645" y="301" width="90" height="30" as="geometry" />
        </mxCell>
        <mxCell id="bJUq3DUy4A8ikL43-R-6-12" value="" style="whiteSpace=wrap;html=1;aspect=fixed;" vertex="1" parent="1">
          <mxGeometry x="650" y="419" width="121" height="121" as="geometry" />
        </mxCell>
        <mxCell id="bJUq3DUy4A8ikL43-R-6-13" value="" style="image;sketch=0;aspect=fixed;html=1;points=[];align=center;fontSize=12;image=img/lib/mscae/Docker.svg;" vertex="1" parent="1">
          <mxGeometry x="685.5" y="499" width="50" height="41" as="geometry" />
        </mxCell>
        <mxCell id="bJUq3DUy4A8ikL43-R-6-14" value="&lt;font style=&quot;font-size: 14px;&quot;&gt;kafka_slave&lt;/font&gt;" style="text;html=1;align=center;verticalAlign=middle;resizable=0;points=[];autosize=1;strokeColor=none;fillColor=none;" vertex="1" parent="1">
          <mxGeometry x="660.5" y="419" width="100" height="30" as="geometry" />
        </mxCell>
        <mxCell id="bJUq3DUy4A8ikL43-R-6-15" value="" style="endArrow=classic;html=1;rounded=0;entryX=0;entryY=0.25;entryDx=0;entryDy=0;fillColor=#d80073;strokeColor=#A50040;strokeWidth=3;" edge="1" parent="1" target="bJUq3DUy4A8ikL43-R-6-4">
          <mxGeometry width="50" height="50" relative="1" as="geometry">
            <mxPoint x="120" y="280" as="sourcePoint" />
            <mxPoint x="160" y="260" as="targetPoint" />
          </mxGeometry>
        </mxCell>
        <mxCell id="bJUq3DUy4A8ikL43-R-6-16" value="" style="endArrow=classic;html=1;rounded=0;entryX=0;entryY=0.5;entryDx=0;entryDy=0;strokeWidth=3;fillColor=#1ba1e2;strokeColor=#006EAF;" edge="1" parent="1" target="bJUq3DUy4A8ikL43-R-6-4">
          <mxGeometry width="50" height="50" relative="1" as="geometry">
            <mxPoint x="120" y="340" as="sourcePoint" />
            <mxPoint x="160" y="420" as="targetPoint" />
          </mxGeometry>
        </mxCell>
        <mxCell id="bJUq3DUy4A8ikL43-R-6-17" value="" style="endArrow=classic;html=1;rounded=0;entryX=0;entryY=0.75;entryDx=0;entryDy=0;strokeWidth=3;fillColor=#1ba1e2;strokeColor=#006EAF;" edge="1" parent="1" target="bJUq3DUy4A8ikL43-R-6-4">
          <mxGeometry width="50" height="50" relative="1" as="geometry">
            <mxPoint x="120" y="400" as="sourcePoint" />
            <mxPoint x="180" y="400" as="targetPoint" />
          </mxGeometry>
        </mxCell>
        <mxCell id="bJUq3DUy4A8ikL43-R-6-18" value="&lt;font style=&quot;font-size: 14px;&quot;&gt;/api&lt;/font&gt;" style="text;html=1;align=center;verticalAlign=middle;resizable=0;points=[];autosize=1;strokeColor=none;fillColor=none;" vertex="1" parent="1">
          <mxGeometry x="105" y="258" width="50" height="30" as="geometry" />
        </mxCell>
        <mxCell id="bJUq3DUy4A8ikL43-R-6-19" value="&lt;font style=&quot;font-size: 14px;&quot;&gt;/rpc&lt;/font&gt;" style="text;html=1;align=center;verticalAlign=middle;resizable=0;points=[];autosize=1;strokeColor=none;fillColor=none;" vertex="1" parent="1">
          <mxGeometry x="85" y="318" width="50" height="30" as="geometry" />
        </mxCell>
        <mxCell id="bJUq3DUy4A8ikL43-R-6-20" value="&lt;font style=&quot;font-size: 14px;&quot;&gt;/kafka&lt;/font&gt;" style="text;html=1;align=center;verticalAlign=middle;resizable=0;points=[];autosize=1;strokeColor=none;fillColor=none;" vertex="1" parent="1">
          <mxGeometry x="100" y="394" width="60" height="30" as="geometry" />
        </mxCell>
        <mxCell id="bJUq3DUy4A8ikL43-R-6-23" value="" style="endArrow=classic;html=1;rounded=0;exitX=1;exitY=0;exitDx=0;exitDy=0;entryX=0;entryY=0.25;entryDx=0;entryDy=0;fillColor=#d80073;strokeColor=#A50040;strokeWidth=3;" edge="1" parent="1" source="bJUq3DUy4A8ikL43-R-6-4" target="bJUq3DUy4A8ikL43-R-6-6">
          <mxGeometry width="50" height="50" relative="1" as="geometry">
            <mxPoint x="300" y="290" as="sourcePoint" />
            <mxPoint x="350" y="240" as="targetPoint" />
          </mxGeometry>
        </mxCell>
        <mxCell id="bJUq3DUy4A8ikL43-R-6-24" value="" style="endArrow=classic;html=1;rounded=0;exitX=0;exitY=0.75;exitDx=0;exitDy=0;entryX=1;entryY=0.25;entryDx=0;entryDy=0;strokeWidth=3;fillColor=#d80073;strokeColor=#A50040;" edge="1" parent="1" source="bJUq3DUy4A8ikL43-R-6-6" target="bJUq3DUy4A8ikL43-R-6-4">
          <mxGeometry width="50" height="50" relative="1" as="geometry">
            <mxPoint x="480" y="370" as="sourcePoint" />
            <mxPoint x="530" y="320" as="targetPoint" />
          </mxGeometry>
        </mxCell>
        <mxCell id="bJUq3DUy4A8ikL43-R-6-25" value="&lt;font style=&quot;font-size: 14px;&quot;&gt;randomNumber: int&lt;/font&gt;" style="text;html=1;align=center;verticalAlign=middle;resizable=0;points=[];autosize=1;strokeColor=none;fillColor=none;rotation=-15;" vertex="1" parent="1">
          <mxGeometry x="395" y="228" width="140" height="30" as="geometry" />
        </mxCell>
        <mxCell id="bJUq3DUy4A8ikL43-R-6-26" value="&lt;font style=&quot;font-size: 14px;&quot;&gt;randomNumber+1: int&lt;/font&gt;" style="text;html=1;align=center;verticalAlign=middle;resizable=0;points=[];autosize=1;strokeColor=none;fillColor=none;rotation=-15;" vertex="1" parent="1">
          <mxGeometry x="410" y="251.5" width="160" height="30" as="geometry" />
        </mxCell>
        <mxCell id="bJUq3DUy4A8ikL43-R-6-28" value="" style="endArrow=classic;html=1;rounded=0;exitX=1;exitY=0.5;exitDx=0;exitDy=0;entryX=0;entryY=0.25;entryDx=0;entryDy=0;strokeWidth=3;fillColor=#1ba1e2;strokeColor=#006EAF;" edge="1" parent="1" source="bJUq3DUy4A8ikL43-R-6-4" target="bJUq3DUy4A8ikL43-R-6-9">
          <mxGeometry width="50" height="50" relative="1" as="geometry">
            <mxPoint x="420" y="400" as="sourcePoint" />
            <mxPoint x="470" y="350" as="targetPoint" />
          </mxGeometry>
        </mxCell>
        <mxCell id="bJUq3DUy4A8ikL43-R-6-29" value="" style="endArrow=classic;html=1;rounded=0;exitX=0;exitY=0.75;exitDx=0;exitDy=0;entryX=1;entryY=0.75;entryDx=0;entryDy=0;strokeWidth=3;fillColor=#1ba1e2;strokeColor=#006EAF;" edge="1" parent="1" source="bJUq3DUy4A8ikL43-R-6-9" target="bJUq3DUy4A8ikL43-R-6-4">
          <mxGeometry width="50" height="50" relative="1" as="geometry">
            <mxPoint x="320" y="470" as="sourcePoint" />
            <mxPoint x="370" y="420" as="targetPoint" />
          </mxGeometry>
        </mxCell>
        <mxCell id="bJUq3DUy4A8ikL43-R-6-30" value="&lt;font style=&quot;font-size: 14px;&quot;&gt;randomNumber: int&lt;/font&gt;" style="text;html=1;align=center;verticalAlign=middle;resizable=0;points=[];autosize=1;strokeColor=none;fillColor=none;rotation=0;" vertex="1" parent="1">
          <mxGeometry x="435" y="301" width="140" height="30" as="geometry" />
        </mxCell>
        <mxCell id="bJUq3DUy4A8ikL43-R-6-31" value="&lt;font style=&quot;font-size: 14px;&quot;&gt;randomNumber+1: int&lt;/font&gt;" style="text;html=1;align=center;verticalAlign=middle;resizable=0;points=[];autosize=1;strokeColor=none;fillColor=none;rotation=0;" vertex="1" parent="1">
          <mxGeometry x="450" y="336" width="160" height="30" as="geometry" />
        </mxCell>
        <mxCell id="bJUq3DUy4A8ikL43-R-6-36" value="" style="rounded=0;whiteSpace=wrap;html=1;" vertex="1" parent="1">
          <mxGeometry x="420" y="390" width="90" height="240" as="geometry" />
        </mxCell>
        <mxCell id="bJUq3DUy4A8ikL43-R-6-37" value="" style="rounded=0;whiteSpace=wrap;html=1;" vertex="1" parent="1">
          <mxGeometry x="429" y="419" width="70" height="80" as="geometry" />
        </mxCell>
        <mxCell id="bJUq3DUy4A8ikL43-R-6-38" value="Topic" style="text;html=1;align=center;verticalAlign=middle;resizable=0;points=[];autosize=1;strokeColor=none;fillColor=none;" vertex="1" parent="1">
          <mxGeometry x="438" y="426" width="50" height="30" as="geometry" />
        </mxCell>
        <mxCell id="bJUq3DUy4A8ikL43-R-6-39" value="Consumer 1" style="rounded=0;whiteSpace=wrap;html=1;" vertex="1" parent="1">
          <mxGeometry x="673" y="454.5" width="75" height="35" as="geometry" />
        </mxCell>
        <mxCell id="bJUq3DUy4A8ikL43-R-6-43" style="edgeStyle=orthogonalEdgeStyle;rounded=0;orthogonalLoop=1;jettySize=auto;html=1;exitX=1;exitY=0.5;exitDx=0;exitDy=0;entryX=0;entryY=0.5;entryDx=0;entryDy=0;strokeWidth=3;fillColor=#e3c800;strokeColor=#B09500;" edge="1" parent="1" source="bJUq3DUy4A8ikL43-R-6-40" target="bJUq3DUy4A8ikL43-R-6-39">
          <mxGeometry relative="1" as="geometry" />
        </mxCell>
        <mxCell id="bJUq3DUy4A8ikL43-R-6-40" value="Partition 0" style="rounded=0;whiteSpace=wrap;html=1;" vertex="1" parent="1">
          <mxGeometry x="433" y="456" width="60" height="30" as="geometry" />
        </mxCell>
        <mxCell id="bJUq3DUy4A8ikL43-R-6-41" value="Broker 1" style="text;html=1;align=center;verticalAlign=middle;resizable=0;points=[];autosize=1;strokeColor=none;fillColor=none;" vertex="1" parent="1">
          <mxGeometry x="428" y="389" width="70" height="30" as="geometry" />
        </mxCell>
        <mxCell id="bJUq3DUy4A8ikL43-R-6-44" value="" style="endArrow=classic;html=1;rounded=0;exitX=1;exitY=1;exitDx=0;exitDy=0;entryX=0;entryY=0.5;entryDx=0;entryDy=0;strokeWidth=3;fillColor=#e3c800;strokeColor=#B09500;" edge="1" parent="1" source="bJUq3DUy4A8ikL43-R-6-4" target="bJUq3DUy4A8ikL43-R-6-40">
          <mxGeometry width="50" height="50" relative="1" as="geometry">
            <mxPoint x="310" y="560" as="sourcePoint" />
            <mxPoint x="360" y="510" as="targetPoint" />
          </mxGeometry>
        </mxCell>
        <mxCell id="bJUq3DUy4A8ikL43-R-6-45" value="&lt;font style=&quot;font-size: 14px;&quot;&gt;randomNumber: int&lt;/font&gt;" style="text;html=1;align=center;verticalAlign=middle;resizable=0;points=[];autosize=1;strokeColor=none;fillColor=none;rotation=30;" vertex="1" parent="1">
          <mxGeometry x="275" y="426" width="140" height="30" as="geometry" />
        </mxCell>
        <mxCell id="bJUq3DUy4A8ikL43-R-6-47" value="&lt;font style=&quot;font-size: 14px;&quot;&gt;randomNumber: int&lt;/font&gt;" style="text;html=1;align=center;verticalAlign=middle;resizable=0;points=[];autosize=1;strokeColor=none;fillColor=none;rotation=0;" vertex="1" parent="1">
          <mxGeometry x="510" y="440" width="140" height="30" as="geometry" />
        </mxCell>
        <mxCell id="bJUq3DUy4A8ikL43-R-6-48" value="" style="image;sketch=0;aspect=fixed;html=1;points=[];align=center;fontSize=12;image=img/lib/mscae/Docker.svg;" vertex="1" parent="1">
          <mxGeometry x="439" y="580" width="50" height="41" as="geometry" />
        </mxCell>
        <mxCell id="bJUq3DUy4A8ikL43-R-6-49" value="" style="whiteSpace=wrap;html=1;aspect=fixed;" vertex="1" parent="1">
          <mxGeometry x="250" y="530" width="80" height="80" as="geometry" />
        </mxCell>
        <mxCell id="bJUq3DUy4A8ikL43-R-6-50" value="&lt;font style=&quot;font-size: 14px;&quot;&gt;zookeeper&lt;/font&gt;" style="text;html=1;align=center;verticalAlign=middle;resizable=0;points=[];autosize=1;strokeColor=none;fillColor=none;" vertex="1" parent="1">
          <mxGeometry x="245" y="530" width="90" height="30" as="geometry" />
        </mxCell>
        <mxCell id="bJUq3DUy4A8ikL43-R-6-51" value="" style="image;sketch=0;aspect=fixed;html=1;points=[];align=center;fontSize=12;image=img/lib/mscae/Docker.svg;" vertex="1" parent="1">
          <mxGeometry x="265" y="560" width="50" height="41" as="geometry" />
        </mxCell>
        <mxCell id="bJUq3DUy4A8ikL43-R-6-52" value="" style="endArrow=classic;startArrow=classic;html=1;rounded=0;entryX=0;entryY=0.75;entryDx=0;entryDy=0;exitX=1;exitY=0.5;exitDx=0;exitDy=0;" edge="1" parent="1" source="bJUq3DUy4A8ikL43-R-6-49" target="bJUq3DUy4A8ikL43-R-6-36">
          <mxGeometry width="50" height="50" relative="1" as="geometry">
            <mxPoint x="350" y="620" as="sourcePoint" />
            <mxPoint x="400" y="570" as="targetPoint" />
          </mxGeometry>
        </mxCell>
        <mxCell id="bJUq3DUy4A8ikL43-R-6-56" style="edgeStyle=orthogonalEdgeStyle;rounded=0;orthogonalLoop=1;jettySize=auto;html=1;exitX=0;exitY=0.5;exitDx=0;exitDy=0;entryX=0.5;entryY=1;entryDx=0;entryDy=0;" edge="1" parent="1" source="bJUq3DUy4A8ikL43-R-6-53" target="bJUq3DUy4A8ikL43-R-6-36">
          <mxGeometry relative="1" as="geometry" />
        </mxCell>
        <mxCell id="bJUq3DUy4A8ikL43-R-6-53" value="" style="whiteSpace=wrap;html=1;aspect=fixed;" vertex="1" parent="1">
          <mxGeometry x="560" y="630" width="80" height="80" as="geometry" />
        </mxCell>
        <mxCell id="bJUq3DUy4A8ikL43-R-6-54" value="" style="image;sketch=0;aspect=fixed;html=1;points=[];align=center;fontSize=12;image=img/lib/mscae/Docker.svg;" vertex="1" parent="1">
          <mxGeometry x="575" y="660" width="50" height="41" as="geometry" />
        </mxCell>
        <mxCell id="bJUq3DUy4A8ikL43-R-6-55" value="&lt;font style=&quot;font-size: 14px;&quot;&gt;kafka-init&lt;/font&gt;" style="text;html=1;align=center;verticalAlign=middle;resizable=0;points=[];autosize=1;strokeColor=none;fillColor=none;" vertex="1" parent="1">
          <mxGeometry x="560" y="630" width="80" height="30" as="geometry" />
        </mxCell>
        <mxCell id="bJUq3DUy4A8ikL43-R-6-57" value="&lt;font style=&quot;font-size: 14px;&quot;&gt;create topic&lt;/font&gt;" style="text;html=1;align=center;verticalAlign=middle;resizable=0;points=[];autosize=1;strokeColor=none;fillColor=none;" vertex="1" parent="1">
          <mxGeometry x="420" y="668" width="100" height="30" as="geometry" />
        </mxCell>
        <mxCell id="bJUq3DUy4A8ikL43-R-6-58" value="" style="shape=image;verticalLabelPosition=bottom;labelBackgroundColor=default;verticalAlign=top;aspect=fixed;imageAspect=0;image=https://logowik.com/content/uploads/images/kafka8040.jpg;" vertex="1" parent="1">
          <mxGeometry x="426.38" y="510" width="79.94" height="60" as="geometry" />
        </mxCell>
      </root>
    </mxGraphModel>
  </diagram>
</mxfile>
